# xmcd
#
# Track frame offsets: 
#        150
#        22095
#        38847
#        55030
#        71140
#        86635
#        104067
#        124877
#        150062
#        173072
#        195825
#
# Disc length: 2782 seconds
#
# Revision: 0
# Processed by: cddbd v1.5.1PL0 Copyright (c) Steve Scherf et al.
# Submitted via: ExactAudioCopy v0.95b2
#
DISCID=890adc0b
DTITLE=林子祥 - 這次你是真的傷了我的心
DYEAR=1991
DGENRE=Pop
TTITLE0=至少還有我在乎
TTITLE1=如果有話要說
TTITLE2=不要笑我癡
TTITLE3=當時年紀小
TTITLE4=我等你
TTITLE5=Moments
TTITLE6=這次你是真的傷了我的心
TTITLE7=愛戀無所不在
TTITLE8=回首夢已遠
TTITLE9=流星
TTITLE10=男兒當自強
EXTD=
EXTT0=
EXTT1=
EXTT2=
EXTT3=
EXTT4=
EXTT5=
EXTT6=
EXTT7=
EXTT8=
EXTT9=
EXTT10=
PLAYORDER=
